HIERARCHY
ROOT hip
{
	OFFSET 0.000000 0.000000 0.000000 
	CHANNELS 6 Xposition Yposition Zposition Xrotation Zrotation Yrotation
	JOINT abdomen
	{
		OFFSET 0.000000 3.402643 0.000000 
		CHANNELS 3 Xrotation Zrotation Yrotation
		JOINT chest
		{
			OFFSET 0.000000 8.438565 -0.680529 
			CHANNELS 3 Xrotation Zrotation Yrotation
			JOINT neck
			{
				OFFSET 0.000000 10.207942 -0.272212 
				CHANNELS 3 Xrotation Zrotation Yrotation
				JOINT head
				{
					OFFSET 0.000000 3.130431 0.000000 
					CHANNELS 3 Xrotation Zrotation Yrotation
					End Site
					{
						OFFSET 0.000000 3.130435 0.000000 
					}
				}
			}
			JOINT lCollar
			{
				OFFSET 3.470700 6.669187 -0.816635 
				CHANNELS 3 Yrotation Zrotation Xrotation
				JOINT lShldr
				{
					OFFSET 3.198488 0.000000 0.000000 
					CHANNELS 3 Zrotation Yrotation Xrotation
					JOINT lForeArm
					{
						OFFSET 10.139888 0.000000 0.000000 
						CHANNELS 3 Yrotation Zrotation Xrotation
						JOINT lHand
						{
							OFFSET 8.370511 0.000000 0.000000 
							CHANNELS 3 Zrotation Yrotation Xrotation
							End Site
							{
								OFFSET 4.083176 0.000000 0.000000 
							}
						}
					}
				}
			}
			JOINT rCollar
			{
				OFFSET -3.470700 6.669187 -0.816635 
				CHANNELS 3 Yrotation Zrotation Xrotation
				JOINT rShldr
				{
					OFFSET -3.198488 0.000000 0.000000 
					CHANNELS 3 Zrotation Yrotation Xrotation
					JOINT rForeArm
					{
						OFFSET -10.139888 0.000000 0.000000 
						CHANNELS 3 Yrotation Zrotation Xrotation
						JOINT rHand
						{
							OFFSET -8.370511 0.000000 0.000000 
							CHANNELS 3 Zrotation Yrotation Xrotation
							End Site
							{
								OFFSET -4.083176 0.000000 0.000000 
							}
						}
					}
				}
			}
		}
	}
	JOINT lThigh
	{
		OFFSET 5.308129 -1.633274 1.361059 
		CHANNELS 3 Xrotation Zrotation Yrotation
		JOINT lShin
		{
			OFFSET -2.041588 -20.007561 0.000000 
			CHANNELS 3 Xrotation Zrotation Yrotation
			JOINT lFoot
			{
				OFFSET 0.000000 -19.190928 -1.224953 
				CHANNELS 3 Xrotation Yrotation Zrotation
				End Site
				{
					OFFSET 0.000000 -2.449906 4.627600 
				}
			}
		}
	}
	JOINT rThigh
	{
		OFFSET -5.308129 -1.633274 1.361059 
		CHANNELS 3 Xrotation Zrotation Yrotation
		JOINT rShin
		{
			OFFSET 2.041588 -20.007561 0.000000 
			CHANNELS 3 Xrotation Zrotation Yrotation
			JOINT rFoot
			{
				OFFSET 0.000000 -19.190928 -1.224953 
				CHANNELS 3 Xrotation Yrotation Zrotation
				End Site
				{
					OFFSET 0.000000 -2.449906 4.627600 
				}
			}
		}
	}
}
MOTION
Frames: 11
Frame Time: 0.050000
-0.013078 52.356949 0.391258 0.085996 0.000000 0.000000 1.860550 0.000000 0.000000 2.745728 0.000000 0.000000 2.147613 0.000000 0.000000 2.523571 0.000000 0.000000 2.021920 -3.621321 -0.063351 -60.769238 22.633158 9.701205 -60.819473 -11.540625 -4.099583 17.038702 8.409076 -9.313721 -2.683294 3.926647 -0.063351 61.990688 -21.377106 7.544266 63.949135 11.770497 -4.818159 -34.616604 -14.121561 1.987479 -13.859172 4.413954 0.091478 29.219851 -3.747072 -2.213881 -15.686995 1.333937 -0.402239 -13.877677 -4.719561 0.092055 29.228100 3.731876 2.025729 -15.756878 -1.823401 0.431401 
-0.021337 51.481350 0.511792 0.360902 0.000000 0.000000 2.582707 0.000000 0.000000 2.804512 0.000000 0.000000 4.393749 0.000000 0.000000 6.000000 0.000000 0.000000 2.021920 -1.361978 -0.063351 -54.347950 27.505209 1.706843 -82.448250 -11.735147 -5.122974 27.053463 11.182085 -16.948801 -3.464698 1.842903 -0.063351 58.343285 -23.815771 -3.089074 86.567177 11.992871 -6.095345 -51.541054 -7.634786 5.964419 -17.240896 4.754851 0.116806 35.981213 -4.079048 -2.845871 -19.309378 1.208248 -0.067937 -17.239689 -5.031274 0.073578 35.959705 4.056794 2.672610 -19.380335 -1.714553 0.107747 
-0.010673 51.954857 0.692321 0.943850 0.000000 0.000000 -0.781819 0.000000 0.000000 -5.455698 0.000000 0.000000 5.648495 0.000000 0.000000 9.639404 0.000000 0.000000 2.021919 0.507303 -0.063351 -52.558937 23.850107 -4.320533 -85.442947 -10.932941 -3.147526 41.554634 11.789365 -4.164012 -4.228607 -0.194189 -0.063351 58.459267 -23.127968 -11.228930 91.442383 11.389132 -4.205064 -48.065510 -2.258690 6.485291 -15.119818 4.425831 0.123318 30.516066 -3.758429 -2.361754 -16.577986 1.344090 -0.341416 -15.125618 -4.738601 0.093083 30.496426 3.737144 2.141251 -16.640167 -1.835799 0.395851 
0.000015 52.998951 0.951451 0.721804 0.000000 0.000000 -5.541353 0.000000 0.000000 -13.984964 0.000000 0.000000 5.879698 0.000000 0.000000 7.145627 0.000000 0.000000 2.021919 3.309690 -0.063351 -57.664452 16.366896 -7.928518 -76.018021 -9.236874 0.387905 48.259644 -0.529234 8.688077 -5.021920 -2.309690 -0.063351 63.773209 -19.345213 -16.142138 86.118530 9.524081 -1.321514 -39.105270 0.756029 7.875682 -9.675082 4.142613 0.133727 20.285007 -3.522715 -1.279486 -11.596942 1.122424 -0.696653 -9.717536 -4.482477 0.097940 20.335434 3.504250 1.056167 -11.682444 -1.650655 0.778455 
-0.008455 53.629688 1.279588 -1.160762 0.000000 0.000000 -8.473991 0.000000 0.000000 -14.489717 0.000000 0.000000 5.315942 0.000000 0.000000 -6.320387 0.000000 0.000000 2.021919 8.046408 -0.063351 -64.059464 14.115295 -8.967882 -70.682701 -8.587154 3.159253 49.060719 1.235633 6.227960 -5.874855 -4.584186 -0.063351 70.511673 -13.771156 -17.670855 78.046280 8.509991 1.623414 -34.932499 2.325882 8.164490 -5.370788 4.016258 -0.012142 16.750927 -3.361353 -0.923691 -10.518554 1.199306 -0.846639 -5.314772 -4.330726 0.146993 16.617525 3.309831 0.732556 -10.498503 -1.706569 0.897887 
-0.021767 53.993240 1.572643 -3.233081 0.000000 0.000000 -10.263157 0.000000 0.000000 -12.295529 0.000000 0.000000 4.204370 0.000000 0.000000 -23.939898 0.000000 0.000000 2.021919 12.591924 -0.063351 -69.264977 14.495419 -9.853712 -69.473808 -9.073883 5.069040 48.429314 10.079828 1.321527 -6.607224 -6.537172 -0.063351 75.076775 -9.026360 -18.360806 70.467896 9.488623 4.077843 -34.169331 3.029945 6.832536 -0.683850 3.884941 -0.134141 12.780602 -3.147610 -0.506773 -9.167995 1.219404 -1.035202 -0.617184 -4.179561 0.227888 12.621013 3.116739 0.376665 -9.141037 -1.755341 1.012011 
-0.013339 52.601559 1.344764 -3.297503 0.000000 0.000000 -10.242665 0.000000 0.000000 -11.905660 0.000000 0.000000 2.765669 0.000000 0.000000 -37.725101 0.000000 0.000000 2.021919 7.945296 -0.063351 -65.077995 14.895652 -12.153617 -77.501472 -8.670601 4.788541 46.536110 15.284908 6.733319 -6.603879 -0.896672 -0.063351 71.399284 -8.255731 -20.721535 77.622192 8.154063 4.685382 -31.138474 -2.084692 11.098236 -8.290133 4.415723 -0.104427 28.430641 -3.880877 -2.040521 -17.124245 1.375353 -0.388729 -8.305365 -4.720389 0.254286 28.439974 3.838488 1.914769 -17.199219 -1.937127 0.419978 
-0.015747 53.198807 1.426642 -3.361924 0.000000 0.000000 -10.222174 0.000000 0.000000 -11.515790 0.000000 0.000000 1.096119 0.000000 0.000000 -46.669670 0.000000 0.000000 2.021919 3.298669 -0.063351 -62.663925 16.383896 -13.701468 -79.573524 -8.190179 5.210461 45.676304 14.740353 7.829687 -6.600534 4.743827 -0.063351 68.443520 -9.091352 -23.188984 78.998993 7.230711 5.656795 -28.961515 -0.465293 11.946069 -5.407282 4.225859 -0.115654 22.718220 -3.667187 -1.457884 -14.245088 1.339630 -0.623764 -5.389634 -4.529818 0.238972 22.668276 3.629720 1.340570 -14.282635 -1.887923 0.642506 
-0.018155 53.796062 1.508521 -3.426345 0.000000 0.000000 -10.201682 0.000000 0.000000 -11.125920 0.000000 0.000000 -0.739095 0.000000 0.000000 -51.512627 0.000000 0.000000 2.021919 9.343772 -0.063351 -68.398941 15.327644 -10.441977 -73.130646 -8.691586 5.199170 48.790661 11.583031 3.813997 -6.597189 -3.412666 -0.063351 74.701187 -8.373110 -18.974842 69.710678 7.617961 5.766746 -34.117260 5.950816 6.151468 -1.874886 3.988271 -0.122700 15.574507 -3.326889 -0.741701 -10.584332 1.226017 -0.921747 -1.853266 -4.288248 0.247302 15.522566 3.304447 0.638326 -10.630560 -1.806680 0.906293 
-0.013877 53.021481 1.399184 -3.490767 0.000000 0.000000 -10.181190 0.000000 0.000000 -10.736051 0.000000 0.000000 -2.674792 0.000000 0.000000 -52.992992 0.000000 0.000000 2.021919 15.388875 -0.063351 -73.122253 13.234159 -8.418245 -70.531822 -9.462167 4.667462 50.638580 12.241563 2.802328 -6.593844 -11.569159 -0.063351 80.659592 -5.648749 -15.813440 63.464569 8.163573 5.574980 -37.872616 7.944730 2.563519 -6.192236 4.295581 -0.107601 24.641422 -3.759767 -1.634943 -15.245638 1.336629 -0.534024 -6.183058 -4.599506 0.252429 24.601904 3.711618 1.535006 -15.293869 -1.912523 0.563538 
-0.009598 52.246895 1.289848 -3.555188 0.000000 0.000000 -10.160699 0.000000 0.000000 -10.346181 0.000000 0.000000 -4.645789 0.000000 0.000000 -51.849800 0.000000 0.000000 2.021919 10.491253 -0.063351 -69.322952 14.180934 -10.299259 -77.010513 -8.856428 4.689775 49.264603 15.626760 7.093785 -6.590499 -3.743122 -0.063351 75.227432 -6.694110 -18.787531 71.602318 7.432240 5.772226 -34.521248 4.308579 7.420740 -9.429654 4.524744 -0.117649 31.448879 -4.009010 -2.322927 -18.731001 1.370772 -0.242664 -9.475706 -4.838962 0.279452 31.506443 3.959280 2.236776 -18.817945 -1.959519 0.290801 
